<svg width="25" height="24" viewBox="0 0 25 24" fill="none" xmlns="http://www.w3.org/2000/svg">
<path fill-rule="evenodd" clip-rule="evenodd" d="M13.5455 5.22763C13.834 4.93041 14.3088 4.92333 14.6061 5.21183L21.0451 11.4618C21.1906 11.6031 21.2727 11.7972 21.2727 12C21.2727 12.2028 21.1906 12.3969 21.0451 12.5382L14.6061 18.7882C14.3088 19.0767 13.834 19.0696 13.5455 18.7724C13.257 18.4751 13.2641 18.0003 13.5613 17.7118L18.6732 12.75H4.02271C3.60849 12.75 3.27271 12.4142 3.27271 12C3.27271 11.5858 3.60849 11.25 4.02271 11.25H18.6732L13.5613 6.28817C13.2641 5.99967 13.257 5.52485 13.5455 5.22763Z" fill="#CB9237"/>
</svg>
