<svg width="24" height="24" viewBox="0 0 24 24" fill="none" xmlns="http://www.w3.org/2000/svg">
<path d="M2.35181 19.3299V5.0442C2.35181 4.65896 2.49627 4.32189 2.76914 4.03296C3.04202 3.74404 3.37909 3.61563 3.76433 3.61563H5.17685V2.54018C5.17685 2.04259 5.35341 1.62526 5.69049 1.27213C6.04362 0.918997 6.44491 0.742432 6.9425 0.742432H7.64876C8.1303 0.742432 8.54763 0.918997 8.90076 1.27213C9.25389 1.62526 9.41441 2.04259 9.41441 2.54018V3.61563H13.652V2.54018C13.652 2.04259 13.8285 1.62526 14.1656 1.27213C14.5187 0.918997 14.92 0.742432 15.4176 0.742432H16.1239C16.6054 0.742432 17.0228 0.918997 17.3759 1.27213C17.729 1.62526 17.8895 2.04259 17.8895 2.54018V3.61563H19.302C19.6873 3.61563 20.0083 3.76009 20.2972 4.03296C20.5701 4.32189 20.7146 4.64291 20.7146 5.0442V19.3139C20.7146 19.6991 20.5701 20.0362 20.2972 20.3251C20.0244 20.614 19.6873 20.7424 19.302 20.7424H3.76433C3.37909 20.7424 3.05807 20.598 2.76914 20.3251C2.49627 20.0362 2.35181 19.7151 2.35181 19.3299ZM3.76433 19.3299H19.302V7.90134H3.76433V19.3299ZM6.58937 5.76651C6.58937 5.86282 6.62147 5.95913 6.68568 6.02333C6.74988 6.08754 6.83014 6.11964 6.9425 6.11964H7.64876C7.74507 6.11964 7.84137 6.08754 7.90558 6.02333C7.96978 5.95913 8.00189 5.87887 8.00189 5.76651V2.55624C8.00189 2.45993 7.96978 2.36362 7.90558 2.29941C7.84137 2.23521 7.76112 2.20311 7.64876 2.20311H6.9425C6.84619 2.20311 6.74988 2.23521 6.68568 2.29941C6.62147 2.36362 6.58937 2.45993 6.58937 2.55624V5.76651ZM15.0645 5.76651C15.0645 5.86282 15.0966 5.95913 15.1608 6.02333C15.225 6.08754 15.3053 6.11964 15.4176 6.11964H16.1239C16.2202 6.11964 16.3165 6.08754 16.3807 6.02333C16.4449 5.95913 16.477 5.87887 16.477 5.76651V2.55624C16.477 2.45993 16.4449 2.36362 16.3807 2.29941C16.3165 2.23521 16.2362 2.20311 16.1239 2.20311H15.4176C15.3213 2.20311 15.225 2.23521 15.1608 2.29941C15.0966 2.36362 15.0645 2.45993 15.0645 2.55624V5.76651Z" fill="#CB9237"/>
</svg>
