<svg width="25" height="24" viewBox="0 0 25 24" fill="none" xmlns="http://www.w3.org/2000/svg">
<path fill-rule="evenodd" clip-rule="evenodd" d="M12.0908 3.75C7.53447 3.75 3.84082 7.44365 3.84082 12C3.84082 16.5563 7.53447 20.25 12.0908 20.25C16.6472 20.25 20.3408 16.5563 20.3408 12C20.3408 7.44365 16.6472 3.75 12.0908 3.75ZM2.34082 12C2.34082 6.61522 6.70604 2.25 12.0908 2.25C17.4756 2.25 21.8408 6.61522 21.8408 12C21.8408 17.3848 17.4756 21.75 12.0908 21.75C6.70604 21.75 2.34082 17.3848 2.34082 12Z" fill="#CB9237"/>
<path fill-rule="evenodd" clip-rule="evenodd" d="M16.2931 14.2633C16.1477 14.6512 15.7154 14.8477 15.3275 14.7022L11.3275 13.2022C11.0348 13.0925 10.8409 12.8126 10.8409 12.5L10.8409 8C10.8409 7.58579 11.1766 7.25 11.5909 7.25C12.0051 7.25 12.3409 7.58579 12.3409 8L12.3409 11.9802L15.8542 13.2978C16.242 13.4432 16.4385 13.8755 16.2931 14.2633Z" fill="#CB9237"/>
</svg>
