<svg width="25" height="24" viewBox="0 0 25 24" fill="none" xmlns="http://www.w3.org/2000/svg">
<path fill-rule="evenodd" clip-rule="evenodd" d="M20.8988 4.51035C21.246 4.85748 21.246 5.4203 20.8988 5.76743L6.67661 19.9896C6.32948 20.3368 5.76666 20.3368 5.41953 19.9896C5.0724 19.6425 5.0724 19.0797 5.41953 18.7326L19.6418 4.51035C19.9889 4.16322 20.5517 4.16322 20.8988 4.51035Z" fill="#CB9237"/>
<path fill-rule="evenodd" clip-rule="evenodd" d="M5.41953 4.51035C5.76666 4.16322 6.32948 4.16322 6.67661 4.51035L20.8988 18.7326C21.246 19.0797 21.246 19.6425 20.8988 19.9896C20.5517 20.3368 19.9889 20.3368 19.6418 19.9896L5.41953 5.76743C5.0724 5.4203 5.0724 4.85748 5.41953 4.51035Z" fill="#CB9237"/>
</svg>
