<svg width="25" height="24" viewBox="0 0 25 24" fill="none" xmlns="http://www.w3.org/2000/svg">
<path d="M13.3432 3V5.88947H11.9221V3H13.3432ZM13.1726 18.4705V21H11.7611V18.4705H13.1726ZM15.0674 15.4768C15.0674 15.0979 14.9821 14.7568 14.8116 14.4537C14.6411 14.1505 14.36 13.8726 13.9684 13.62C13.5768 13.3674 13.0526 13.1337 12.3958 12.9189C11.6 12.6726 10.9116 12.3726 10.3305 12.0189C9.75579 11.6653 9.31053 11.2263 8.99474 10.7021C8.68526 10.1779 8.53053 9.54316 8.53053 8.79789C8.53053 8.02105 8.69789 7.35158 9.03263 6.78947C9.36737 6.22737 9.84105 5.79474 10.4537 5.49158C11.0663 5.18842 11.7863 5.03684 12.6137 5.03684C13.2579 5.03684 13.8326 5.13474 14.3379 5.33053C14.8432 5.52 15.2695 5.80421 15.6168 6.18316C15.9705 6.56211 16.2389 7.02632 16.4221 7.57579C16.6116 8.12526 16.7063 8.76 16.7063 9.48H14.9632C14.9632 9.05684 14.9126 8.66842 14.8116 8.31474C14.7105 7.96105 14.5589 7.65474 14.3568 7.39579C14.1547 7.13053 13.9084 6.92842 13.6179 6.78947C13.3274 6.64421 12.9926 6.57158 12.6137 6.57158C12.0832 6.57158 11.6442 6.66316 11.2968 6.84632C10.9558 7.02947 10.7032 7.28842 10.5389 7.62316C10.3747 7.95158 10.2926 8.33368 10.2926 8.76947C10.2926 9.17368 10.3747 9.52737 10.5389 9.83053C10.7032 10.1337 10.9811 10.4084 11.3726 10.6547C11.7705 10.8947 12.3168 11.1316 13.0116 11.3653C13.8263 11.6242 14.5179 11.9305 15.0863 12.2842C15.6547 12.6316 16.0874 13.0611 16.3842 13.5726C16.6811 14.0779 16.8295 14.7063 16.8295 15.4579C16.8295 16.2726 16.6463 16.9611 16.28 17.5232C15.9137 18.0789 15.3989 18.5021 14.7358 18.7926C14.0726 19.0832 13.2958 19.2284 12.4053 19.2284C11.8684 19.2284 11.3379 19.1558 10.8137 19.0105C10.2895 18.8653 9.81579 18.6284 9.39263 18.3C8.96947 17.9653 8.63158 17.5263 8.37895 16.9832C8.12632 16.4337 8 15.7611 8 14.9653H9.76211C9.76211 15.5021 9.83789 15.9474 9.98947 16.3011C10.1474 16.6484 10.3558 16.9263 10.6147 17.1347C10.8737 17.3368 11.1579 17.4821 11.4674 17.5705C11.7832 17.6526 12.0958 17.6937 12.4053 17.6937C12.9737 17.6937 13.4537 17.6053 13.8453 17.4284C14.2432 17.2453 14.5463 16.9863 14.7547 16.6516C14.9632 16.3168 15.0674 15.9253 15.0674 15.4768Z" fill="#CB9237"/>
</svg>
