<svg width="25" height="24" viewBox="0 0 25 24" fill="none" xmlns="http://www.w3.org/2000/svg">
<path fill-rule="evenodd" clip-rule="evenodd" d="M10.9591 5.9619C10.9802 6.37558 10.6619 6.728 10.2482 6.74905C8.04991 6.86092 6.86305 7.32883 6.17278 8.16525C5.45585 9.03397 5.11377 10.4833 5.11377 12.9862C5.11377 15.6981 5.5155 17.1685 6.35562 18.0084C7.1958 18.8484 8.66675 19.25 11.3794 19.25C13.8678 19.25 15.3265 18.9128 16.2019 18.2316C17.0338 17.5843 17.4977 16.4931 17.6151 14.5007C17.6394 14.0872 17.9944 13.7718 18.4079 13.7961C18.8214 13.8205 19.1368 14.1754 19.1125 14.5889C18.9862 16.7329 18.4676 18.3693 17.1231 19.4155C15.822 20.4279 13.9104 20.75 11.3794 20.75C8.63543 20.75 6.59857 20.3723 5.29509 19.0692C3.99156 17.766 3.61377 15.7295 3.61377 12.9862C3.61377 10.4454 3.93804 8.51652 5.01587 7.21049C6.12036 5.87216 7.85667 5.36881 10.172 5.25099C10.5857 5.22993 10.9381 5.54822 10.9591 5.9619Z" fill="#CB9237"/>
<path fill-rule="evenodd" clip-rule="evenodd" d="M20.8941 3.46967C21.187 3.76256 21.187 4.23744 20.8941 4.53033L13.8941 11.5303C13.6012 11.8232 13.1263 11.8232 12.8334 11.5303C12.5405 11.2374 12.5405 10.7626 12.8334 10.4697L19.8334 3.46967C20.1263 3.17678 20.6012 3.17678 20.8941 3.46967Z" fill="#CB9237"/>
<path fill-rule="evenodd" clip-rule="evenodd" d="M13.6138 4C13.6138 3.58579 13.9496 3.25 14.3638 3.25H20.3638C20.778 3.25 21.1138 3.58579 21.1138 4V10C21.1138 10.4142 20.778 10.75 20.3638 10.75C19.9496 10.75 19.6138 10.4142 19.6138 10V4.75H14.3638C13.9496 4.75 13.6138 4.41421 13.6138 4Z" fill="#CB9237"/>
</svg>
