<svg width="25" height="24" viewBox="0 0 25 24" fill="none" xmlns="http://www.w3.org/2000/svg">
<path fill-rule="evenodd" clip-rule="evenodd" d="M5 11.9997C5 11.5088 5.39797 11.1108 5.88889 11.1108H20.1111C20.602 11.1108 21 11.5088 21 11.9997C21 12.4906 20.602 12.8886 20.1111 12.8886H5.88889C5.39797 12.8886 5 12.4906 5 11.9997Z" fill="#CB9237"/>
<path fill-rule="evenodd" clip-rule="evenodd" d="M12.9997 20C12.5088 20 12.1108 19.602 12.1108 19.1111L12.1108 4.88889C12.1108 4.39797 12.5088 4 12.9997 4C13.4906 4 13.8886 4.39797 13.8886 4.88889L13.8886 19.1111C13.8886 19.602 13.4906 20 12.9997 20Z" fill="#CB9237"/>
</svg>
