<svg width="25" height="24" viewBox="0 0 25 24" fill="none" xmlns="http://www.w3.org/2000/svg">
<path fill-rule="evenodd" clip-rule="evenodd" d="M11.0063 3.75C7.00228 3.75 3.75635 6.99594 3.75635 11C3.75635 15.0041 7.00228 18.25 11.0063 18.25C15.0104 18.25 18.2563 15.0041 18.2563 11C18.2563 6.99594 15.0104 3.75 11.0063 3.75ZM2.25635 11C2.25635 6.16751 6.17386 2.25 11.0063 2.25C15.8388 2.25 19.7563 6.16751 19.7563 11C19.7563 15.8325 15.8388 19.75 11.0063 19.75C6.17386 19.75 2.25635 15.8325 2.25635 11Z" fill="#CB9237"/>
<path fill-rule="evenodd" clip-rule="evenodd" d="M16.476 16.4697C16.7689 16.1768 17.2438 16.1768 17.5367 16.4697L21.5367 20.4697C21.8296 20.7626 21.8296 21.2374 21.5367 21.5303C21.2438 21.8232 20.7689 21.8232 20.476 21.5303L16.476 17.5303C16.1831 17.2374 16.1831 16.7626 16.476 16.4697Z" fill="#CB9237"/>
</svg>
