<svg width="84" height="84" viewBox="0 0 84 84" fill="none" xmlns="http://www.w3.org/2000/svg">
<circle cx="42" cy="42" r="41.5" fill="none" stroke="" />
<path
    fill-rule="evenodd"
    clip-rule="evenodd"
    d="M36.7623 17.6993C37.2482 19.0379 36.557 20.517 35.2184 21.0029C25.7796 24.4293 20.1568 31.4186 20.157 41.3557C20.1571 51.4478 27.488 62.843 41.6444 62.843C56.1753 62.843 63.1317 51.0824 63.1317 41.3557C63.1317 32.9061 58.4253 24.3323 47.7603 21.0431C46.3995 20.6235 45.6366 19.1801 46.0562 17.8193C46.4759 16.4585 47.9193 15.6955 49.2801 16.1152C62.3398 20.1429 68.2887 30.8965 68.2887 41.3557C68.2887 53.1163 59.7746 68 41.6444 68C23.9997 68 15.0002 53.6105 15 41.3558C14.9998 28.946 22.281 20.2132 33.4587 16.1555C34.7973 15.6695 36.2764 16.3607 36.7623 17.6993Z"
    fill="#CB9237"
  />
</svg>
