<svg width="24" height="24" viewBox="0 0 24 24" fill="none" xmlns="http://www.w3.org/2000/svg">
<path fill-rule="evenodd" clip-rule="evenodd" d="M4.04668 11.2442V4.3878C4.04668 4.29733 4.08262 4.21056 4.14659 4.14659C4.21056 4.08262 4.29733 4.04668 4.3878 4.04668H11.2442C11.289 4.0466 11.3334 4.05536 11.3749 4.07245C11.4163 4.08954 11.454 4.11463 11.4857 4.14629L20.0135 12.6741C20.0453 12.7058 20.0705 12.7435 20.0877 12.7849C20.1049 12.8263 20.1138 12.8708 20.1138 12.9156C20.1138 12.9605 20.1049 13.0049 20.0877 13.0464C20.0705 13.0878 20.0453 13.1255 20.0135 13.1572L13.1572 20.0135C13.1255 20.0453 13.0878 20.0705 13.0464 20.0877C13.0049 20.1049 12.9605 20.1138 12.9156 20.1138C12.8708 20.1138 12.8263 20.1049 12.7849 20.0877C12.7435 20.0705 12.7058 20.0453 12.6741 20.0135L4.14629 11.4857C4.11463 11.454 4.08954 11.4163 4.07245 11.3749C4.05536 11.3334 4.0466 11.289 4.04668 11.2442ZM2 11.2442V4.3878C2 3.06973 3.06973 2 4.3878 2H11.2442C11.8773 2 12.4858 2.25106 12.9334 2.69997L21.4612 11.2278C21.9087 11.6756 22.16 12.2827 22.16 12.9156C22.16 13.5486 21.9087 14.1557 21.4612 14.6035L14.6035 21.4612C14.1557 21.9087 13.5486 22.16 12.9156 22.16C12.2827 22.16 11.6756 21.9087 11.2278 21.4612L2.69997 12.9334C2.47804 12.7116 2.30199 12.4483 2.18189 12.1584C2.06178 11.8686 1.99998 11.5579 2 11.2442ZM8.82228 7.45782C8.4604 7.45782 8.11335 7.60158 7.85746 7.85746C7.60158 8.11335 7.45782 8.4604 7.45782 8.82228C7.45782 9.18415 7.60158 9.53121 7.85746 9.78709C8.11335 10.043 8.4604 10.1867 8.82228 10.1867C9.18415 10.1867 9.53121 10.043 9.78709 9.78709C10.043 9.53121 10.1867 9.18415 10.1867 8.82228C10.1867 8.4604 10.043 8.11335 9.78709 7.85746C9.53121 7.60158 9.18415 7.45782 8.82228 7.45782Z" fill="#CB9237"/>
</svg>
