<svg width="25" height="24" viewBox="0 0 25 24" fill="none" xmlns="http://www.w3.org/2000/svg">
<path fill-rule="evenodd" clip-rule="evenodd" d="M12.7275 8.75C12.0235 8.75 11.4775 9.3013 11.4775 9.98C11.4775 10.3942 11.1418 10.73 10.7275 10.73C10.3133 10.73 9.97754 10.3942 9.97754 9.98C9.97754 8.4587 11.2093 7.25 12.7275 7.25C14.2457 7.25 15.4775 8.4587 15.4775 9.98C15.4775 11.0858 14.8236 11.8286 14.1932 12.3279C14.1762 12.3414 14.1587 12.354 14.1407 12.366C13.7198 12.6438 13.5905 12.8443 13.5408 12.9592C13.4856 13.0867 13.4775 13.2121 13.4775 13.5C13.4775 13.9142 13.1418 14.25 12.7275 14.25C12.3133 14.25 11.9775 13.9142 11.9775 13.5C11.9775 13.4902 11.9775 13.4801 11.9775 13.4698C11.9772 13.206 11.9768 12.7964 12.1643 12.3633C12.3612 11.9085 12.7228 11.5099 13.2852 11.1334C13.7502 10.7597 13.9775 10.4071 13.9775 9.98C13.9775 9.3013 13.4316 8.75 12.7275 8.75Z" fill="#CB9237"/>
<path fill-rule="evenodd" clip-rule="evenodd" d="M12.7275 3.75C8.17119 3.75 4.47754 7.44365 4.47754 12C4.47754 16.5563 8.17119 20.25 12.7275 20.25C17.2839 20.25 20.9775 16.5563 20.9775 12C20.9775 7.44365 17.2839 3.75 12.7275 3.75ZM2.97754 12C2.97754 6.61522 7.34276 2.25 12.7275 2.25C18.1123 2.25 22.4775 6.61522 22.4775 12C22.4775 17.3848 18.1123 21.75 12.7275 21.75C7.34276 21.75 2.97754 17.3848 2.97754 12Z" fill="#CB9237"/>
<path d="M12.7275 16.5C13.0037 16.5 13.2275 16.2761 13.2275 16C13.2275 15.7239 13.0037 15.5 12.7275 15.5C12.4514 15.5 12.2275 15.7239 12.2275 16C12.2275 16.2761 12.4514 16.5 12.7275 16.5Z" fill="#CB9237"/>
<path fill-rule="evenodd" clip-rule="evenodd" d="M11.7275 16C11.7275 15.4477 12.1753 15 12.7275 15C13.2798 15 13.7275 15.4477 13.7275 16C13.7275 16.5523 13.2798 17 12.7275 17C12.1753 17 11.7275 16.5523 11.7275 16Z" fill="#CB9237"/>
</svg>
